<svg xmlns="http://www.w3.org/2000/svg" version="1.1" xmlns:xlink="http://www.w3.org/1999/xlink" xmlns:svgjs="http://svgjs.dev/svgjs" viewBox="0 0 58.478876933186456 60.35850153002457"><g transform="matrix(1,0,0,1,28.050158559366665,55.2076873788766)"><g><path d=" M 0.00915 0.10740000000000001 L 0.00915 0.000899999999999998 L 0.038400000000000004 0.000899999999999998 L 0.038400000000000004 0.0819 L 0.08670000000000001 0.0819 L 0.08670000000000001 0.10740000000000001 L 0.00915 0.10740000000000001 M 0.09840329589843752 0.10740000000000001 L 0.09840329589843752 0.000899999999999998 L 0.12765329589843752 0.000899999999999998 L 0.12765329589843752 0.10740000000000001 L 0.09840329589843752 0.10740000000000001 M 0.23805578613281253 0.0801 Q 0.23805578613281253 0.0897 0.23288078613281255 0.09570000000000001 Q 0.22770578613281253 0.10170000000000001 0.21900578613281252 0.10455 Q 0.21030578613281253 0.10740000000000001 0.19980578613281252 0.10740000000000001 L 0.14745578613281252 0.10740000000000001 L 0.14745578613281252 0.000899999999999998 L 0.20925578613281254 0.000899999999999998 Q 0.21675578613281254 0.000899999999999998 0.22223078613281255 0.004875000000000004 Q 0.22770578613281253 0.008849999999999997 0.23063078613281252 0.015149999999999997 Q 0.23355578613281253 0.021449999999999997 0.23355578613281253 0.028200000000000003 Q 0.23355578613281253 0.03555 0.22973078613281253 0.04245 Q 0.22590578613281254 0.049350000000000005 0.21825578613281255 0.05280000000000001 Q 0.22740578613281254 0.05550000000000001 0.23273078613281253 0.06225000000000001 Q 0.23805578613281253 0.069 0.23805578613281253 0.0801 M 0.20835578613281253 0.0741 Q 0.20835578613281253 0.0714 0.20738078613281252 0.069375 Q 0.20640578613281252 0.06735000000000001 0.20475578613281253 0.06615000000000001 Q 0.20310578613281255 0.06495000000000001 0.20085578613281252 0.06495000000000001 L 0.17670578613281251 0.06495000000000001 L 0.17670578613281251 0.08280000000000001 L 0.19980578613281252 0.08280000000000001 Q 0.20220578613281254 0.08280000000000001 0.20415578613281254 0.08175 Q 0.20610578613281255 0.08070000000000001 0.20723078613281254 0.07875000000000001 Q 0.20835578613281253 0.07680000000000001 0.20835578613281253 0.0741 M 0.17670578613281251 0.025800000000000003 L 0.17670578613281251 0.04215000000000001 L 0.19665578613281254 0.04215000000000001 Q 0.19860578613281255 0.04215000000000001 0.2004057861328125 0.041475 Q 0.20220578613281254 0.0408 0.20340578613281252 0.03900000000000001 Q 0.20460578613281255 0.0372 0.20460578613281255 0.0339 Q 0.20460578613281255 0.030899999999999997 0.20363078613281255 0.029175000000000006 Q 0.20265578613281254 0.027450000000000002 0.20108078613281255 0.026624999999999996 Q 0.19950578613281253 0.025800000000000003 0.19755578613281252 0.025800000000000003 L 0.17670578613281251 0.025800000000000003 M 0.25245615234375 0.10740000000000001 L 0.25245615234375 0.000899999999999998 L 0.30135615234375 0.000899999999999998 Q 0.30915615234375005 0.000899999999999998 0.31575615234375004 0.004049999999999998 Q 0.32235615234375004 0.007199999999999998 0.32715615234375006 0.012524999999999994 Q 0.33195615234375003 0.017850000000000005 0.33458115234375 0.02445 Q 0.33720615234375007 0.031050000000000008 0.33720615234375007 0.0378 Q 0.33720615234375007 0.04395 0.33540615234375004 0.04965000000000001 Q 0.33360615234375 0.05535 0.33015615234375006 0.060075 Q 0.32670615234375 0.0648 0.32190615234375003 0.06825 L 0.34440615234375005 0.10740000000000001 L 0.31230615234375003 0.10740000000000001 L 0.29355615234375004 0.07470000000000002 L 0.28170615234375 0.07470000000000002 L 0.28170615234375 0.10740000000000001 L 0.25245615234375 0.10740000000000001 M 0.28170615234375 0.0492 L 0.30015615234375004 0.0492 Q 0.30195615234375006 0.0492 0.30360615234375005 0.047850000000000004 Q 0.30525615234375003 0.04650000000000001 0.30638115234375 0.04395 Q 0.30750615234375 0.041400000000000006 0.30750615234375 0.0378 Q 0.30750615234375 0.03405 0.30623115234375003 0.031575000000000006 Q 0.30495615234375 0.0291 0.30308115234375005 0.027749999999999997 Q 0.30120615234375003 0.026400000000000007 0.29940615234375 0.026400000000000007 L 0.28170615234375 0.026400000000000007 L 0.28170615234375 0.0492 M 0.37980432128906255 0.000899999999999998 L 0.41250432128906256 0.000899999999999998 L 0.44640432128906254 0.10740000000000001 L 0.41670432128906254 0.10740000000000001 L 0.4102543212890626 0.08655000000000002 L 0.38190432128906254 0.08655000000000002 L 0.37560432128906257 0.10740000000000001 L 0.3457543212890625 0.10740000000000001 L 0.37980432128906255 0.000899999999999998 M 0.40560432128906254 0.06705 L 0.3961543212890626 0.029550000000000007 L 0.38625432128906256 0.06705 L 0.40560432128906254 0.06705 M 0.45675314941406253 0.10740000000000001 L 0.45675314941406253 0.000899999999999998 L 0.5056531494140626 0.000899999999999998 Q 0.5134531494140625 0.000899999999999998 0.5200531494140626 0.004049999999999998 Q 0.5266531494140625 0.007199999999999998 0.5314531494140625 0.012524999999999994 Q 0.5362531494140625 0.017850000000000005 0.5388781494140625 0.02445 Q 0.5415031494140625 0.031050000000000008 0.5415031494140625 0.0378 Q 0.5415031494140625 0.04395 0.5397031494140625 0.04965000000000001 Q 0.5379031494140626 0.05535 0.5344531494140625 0.060075 Q 0.5310031494140626 0.0648 0.5262031494140625 0.06825 L 0.5487031494140625 0.10740000000000001 L 0.5166031494140626 0.10740000000000001 L 0.49785314941406256 0.07470000000000002 L 0.48600314941406253 0.07470000000000002 L 0.48600314941406253 0.10740000000000001 L 0.45675314941406253 0.10740000000000001 M 0.48600314941406253 0.0492 L 0.5044531494140625 0.0492 Q 0.5062531494140625 0.0492 0.5079031494140626 0.047850000000000004 Q 0.5095531494140626 0.04650000000000001 0.5106781494140625 0.04395 Q 0.5118031494140626 0.041400000000000006 0.5118031494140626 0.0378 Q 0.5118031494140626 0.03405 0.5105281494140625 0.031575000000000006 Q 0.5092531494140625 0.0291 0.5073781494140626 0.027749999999999997 Q 0.5055031494140625 0.026400000000000007 0.5037031494140626 0.026400000000000007 L 0.48600314941406253 0.026400000000000007 L 0.48600314941406253 0.0492 M 0.5748024902343751 0.000899999999999998 L 0.593852490234375 0.04440000000000001 L 0.6133524902343751 0.000899999999999998 L 0.645152490234375 0.000899999999999998 L 0.6084024902343751 0.07215 L 0.6084024902343751 0.10740000000000001 L 0.5793024902343751 0.10740000000000001 L 0.5793024902343751 0.07185 L 0.5431524902343751 0.000899999999999998 L 0.5748024902343751 0.000899999999999998 M 0.7648530761718751 0.10740000000000001 L 0.7648530761718751 0.051300000000000005 L 0.7470030761718751 0.09075000000000001 L 0.7314030761718752 0.09075000000000001 L 0.7135530761718751 0.051300000000000005 L 0.7135530761718751 0.10740000000000001 L 0.6843030761718751 0.10740000000000001 L 0.6843030761718751 0.000899999999999998 L 0.7162530761718752 0.000899999999999998 L 0.7392030761718752 0.051000000000000004 L 0.7623030761718752 0.000899999999999998 L 0.7941030761718751 0.000899999999999998 L 0.7941030761718751 0.10740000000000001 L 0.7648530761718751 0.10740000000000001 M 0.8385036621093751 0.000899999999999998 L 0.8712036621093752 0.000899999999999998 L 0.9051036621093752 0.10740000000000001 L 0.8754036621093751 0.10740000000000001 L 0.8689536621093752 0.08655000000000002 L 0.8406036621093752 0.08655000000000002 L 0.8343036621093751 0.10740000000000001 L 0.8044536621093752 0.10740000000000001 L 0.8385036621093751 0.000899999999999998 M 0.8643036621093751 0.06705 L 0.8548536621093752 0.029550000000000007 L 0.8449536621093752 0.06705 L 0.8643036621093751 0.06705 M 0.9447024902343751 0.05505 L 0.9447024902343751 0.10740000000000001 L 0.9154524902343751 0.10740000000000001 L 0.9154524902343751 0.000899999999999998 L 0.9382524902343752 0.000899999999999998 L 0.9810024902343751 0.05505 L 0.9810024902343751 0.000899999999999998 L 1.0102524902343752 0.000899999999999998 L 1.0102524902343752 0.10740000000000001 L 0.9870024902343751 0.10740000000000001 L 0.9447024902343751 0.05505 M 1.0546567382812502 0.000899999999999998 L 1.0873567382812501 0.000899999999999998 L 1.1212567382812502 0.10740000000000001 L 1.0915567382812503 0.10740000000000001 L 1.0851067382812503 0.08655000000000002 L 1.0567567382812502 0.08655000000000002 L 1.0504567382812502 0.10740000000000001 L 1.0206067382812503 0.10740000000000001 L 1.0546567382812502 0.000899999999999998 M 1.0804567382812502 0.06705 L 1.0710067382812503 0.029550000000000007 L 1.0611067382812502 0.06705 L 1.0804567382812502 0.06705 M 1.1733068115234377 0.10815000000000001 Q 1.1629568115234379 0.10815000000000001 1.1535818115234378 0.10447500000000001 Q 1.1442068115234378 0.10080000000000001 1.1370068115234377 0.09367500000000001 Q 1.1298068115234379 0.08655000000000002 1.125681811523438 0.076425 Q 1.1215568115234378 0.0663 1.1215568115234378 0.053250000000000006 Q 1.1215568115234378 0.04200000000000001 1.1257568115234378 0.0324 Q 1.1299568115234377 0.0228 1.1373818115234378 0.015524999999999997 Q 1.1448068115234378 0.008249999999999993 1.1547068115234378 0.004199999999999995 Q 1.1646068115234378 0.00014999999999999736 1.1761568115234378 0.00014999999999999736 Q 1.1905568115234377 0.00014999999999999736 1.2022568115234378 0.006375000000000006 Q 1.2139568115234378 0.0126 1.2196568115234379 0.023400000000000004 L 1.197906811523438 0.04005 Q 1.194756811523438 0.03375 1.1884568115234377 0.029925000000000007 Q 1.1821568115234378 0.026099999999999998 1.1751068115234378 0.026099999999999998 Q 1.1698568115234378 0.026099999999999998 1.165506811523438 0.028200000000000003 Q 1.1611568115234379 0.030300000000000007 1.1579318115234378 0.03405 Q 1.1547068115234378 0.0378 1.1529818115234378 0.042975 Q 1.1512568115234378 0.048150000000000005 1.1512568115234378 0.0543 Q 1.1512568115234378 0.06060000000000001 1.1530568115234379 0.06570000000000001 Q 1.1548568115234379 0.0708 1.158081811523438 0.07447500000000001 Q 1.1613068115234377 0.07815000000000001 1.165806811523438 0.08017500000000001 Q 1.1703068115234379 0.08220000000000001 1.1758568115234378 0.08220000000000001 Q 1.1829068115234378 0.08220000000000001 1.1893568115234379 0.07867500000000001 Q 1.195806811523438 0.07515000000000001 1.201056811523438 0.06870000000000001 L 1.201056811523438 0.09720000000000001 Q 1.189056811523438 0.10815000000000001 1.1733068115234377 0.10815000000000001 M 1.1995568115234378 0.07170000000000001 L 1.179906811523438 0.07170000000000001 L 1.179906811523438 0.0507 L 1.2237068115234377 0.0507 L 1.2237068115234377 0.10740000000000001 L 1.1995568115234378 0.10740000000000001 L 1.1995568115234378 0.07170000000000001 M 1.315508862304688 0.0819 L 1.315508862304688 0.10740000000000001 L 1.239608862304688 0.10740000000000001 L 1.239608862304688 0.000899999999999998 L 1.314158862304688 0.000899999999999998 L 1.314158862304688 0.026400000000000007 L 1.268858862304688 0.026400000000000007 L 1.268858862304688 0.041400000000000006 L 1.3075588623046879 0.041400000000000006 L 1.3075588623046879 0.0651 L 1.268858862304688 0.0651 L 1.268858862304688 0.0819 L 1.315508862304688 0.0819 M 1.4112065917968755 0.10740000000000001 L 1.4112065917968755 0.051300000000000005 L 1.3933565917968753 0.09075000000000001 L 1.3777565917968753 0.09075000000000001 L 1.3599065917968753 0.051300000000000005 L 1.3599065917968753 0.10740000000000001 L 1.3306565917968753 0.10740000000000001 L 1.3306565917968753 0.000899999999999998 L 1.3626065917968753 0.000899999999999998 L 1.3855565917968753 0.051000000000000004 L 1.4086565917968754 0.000899999999999998 L 1.4404565917968755 0.000899999999999998 L 1.4404565917968755 0.10740000000000001 L 1.4112065917968755 0.10740000000000001 M 1.5361571777343754 0.0819 L 1.5361571777343754 0.10740000000000001 L 1.4602571777343754 0.10740000000000001 L 1.4602571777343754 0.000899999999999998 L 1.5348071777343755 0.000899999999999998 L 1.5348071777343755 0.026400000000000007 L 1.4895071777343754 0.026400000000000007 L 1.4895071777343754 0.041400000000000006 L 1.5282071777343753 0.041400000000000006 L 1.5282071777343753 0.0651 L 1.4895071777343754 0.0651 L 1.4895071777343754 0.0819 L 1.5361571777343754 0.0819 M 1.5805549072265628 0.05505 L 1.5805549072265628 0.10740000000000001 L 1.5513049072265628 0.10740000000000001 L 1.5513049072265628 0.000899999999999998 L 1.5741049072265627 0.000899999999999998 L 1.6168549072265628 0.05505 L 1.6168549072265628 0.000899999999999998 L 1.6461049072265628 0.000899999999999998 L 1.6461049072265628 0.10740000000000001 L 1.6228549072265628 0.10740000000000001 L 1.5805549072265628 0.05505 M 1.7488591552734378 0.026400000000000007 L 1.7182591552734379 0.026400000000000007 L 1.7182591552734379 0.10740000000000001 L 1.6890091552734376 0.10740000000000001 L 1.6890091552734376 0.026400000000000007 L 1.6582591552734378 0.026400000000000007 L 1.6582591552734378 0.000899999999999998 L 1.7488591552734378 0.000899999999999998 L 1.7488591552734378 0.026400000000000007 M 1.8565567382812502 0.03570000000000001 Q 1.8565567382812502 0.03570000000000001 1.8540067382812502 0.03420000000000001 Q 1.8514567382812501 0.03270000000000001 1.8472567382812501 0.030825000000000005 Q 1.8430567382812502 0.028950000000000004 1.8381067382812502 0.027450000000000002 Q 1.8331567382812501 0.02595 1.8283567382812502 0.02595 Q 1.8246067382812503 0.02595 1.8222067382812503 0.027150000000000007 Q 1.8198067382812502 0.02835 1.8198067382812502 0.031200000000000006 Q 1.8198067382812502 0.0339 1.8222067382812503 0.03555 Q 1.8246067382812503 0.0372 1.8290317382812502 0.03855 Q 1.8334567382812503 0.039900000000000005 1.8396067382812502 0.04185 Q 1.8495067382812502 0.04485 1.8567067382812503 0.04875 Q 1.8639067382812502 0.05265 1.8678067382812502 0.058725000000000006 Q 1.8717067382812502 0.0648 1.8717067382812502 0.07485 Q 1.8717067382812502 0.08445000000000001 1.8682567382812503 0.090975 Q 1.8648067382812503 0.0975 1.8589567382812502 0.1014 Q 1.8531067382812503 0.1053 1.8459067382812502 0.10702500000000001 Q 1.8387067382812503 0.10875000000000001 1.8312067382812502 0.10875000000000001 Q 1.8235567382812503 0.10875000000000001 1.8152317382812502 0.107175 Q 1.8069067382812503 0.10560000000000001 1.7991067382812502 0.10282500000000001 Q 1.7913067382812502 0.10005000000000001 1.7848567382812501 0.09630000000000001 L 1.7974567382812503 0.07065 Q 1.7974567382812503 0.07065 1.8004567382812502 0.07245000000000001 Q 1.8034567382812503 0.07425000000000001 1.8084067382812503 0.07650000000000001 Q 1.8133567382812503 0.07875000000000001 1.8194317382812502 0.08055000000000001 Q 1.8255067382812502 0.08235 1.8316567382812503 0.08235 Q 1.8364567382812502 0.08235 1.8383317382812503 0.08107500000000001 Q 1.8402067382812501 0.07980000000000001 1.8402067382812501 0.0777 Q 1.8402067382812501 0.07455 1.8369067382812503 0.072825 Q 1.8336067382812502 0.0711 1.8282817382812502 0.069525 Q 1.8229567382812502 0.06795000000000001 1.8165067382812503 0.06585 Q 1.8072067382812502 0.0627 1.8012067382812502 0.058725000000000006 Q 1.7952067382812502 0.05475000000000001 1.7923567382812502 0.049275000000000006 Q 1.7895067382812502 0.043800000000000006 1.7895067382812502 0.036000000000000004 Q 1.7895067382812502 0.024150000000000005 1.7950567382812503 0.016200000000000006 Q 1.8006067382812503 0.008249999999999993 1.8096817382812502 0.004125000000000004 Q 1.8187567382812502 0 1.8292567382812503 0 Q 1.8370567382812502 0 1.8443317382812503 0.0018750000000000017 Q 1.8516067382812502 0.0037500000000000033 1.8579817382812502 0.006449999999999997 Q 1.8643567382812503 0.009150000000000005 1.8691567382812502 0.011550000000000005 L 1.8565567382812502 0.03570000000000001 M 1.9047044677734377 0.000899999999999998 L 1.9237544677734377 0.04440000000000001 L 1.9432544677734376 0.000899999999999998 L 1.9750544677734376 0.000899999999999998 L 1.9383044677734376 0.07215 L 1.9383044677734376 0.10740000000000001 L 1.9092044677734377 0.10740000000000001 L 1.9092044677734377 0.07185 L 1.8730544677734378 0.000899999999999998 L 1.9047044677734377 0.000899999999999998 M 2.0439073242187504 0.03570000000000001 Q 2.0439073242187504 0.03570000000000001 2.04135732421875 0.03420000000000001 Q 2.0388073242187503 0.03270000000000001 2.0346073242187503 0.030825000000000005 Q 2.0304073242187504 0.028950000000000004 2.0254573242187504 0.027450000000000002 Q 2.0205073242187503 0.02595 2.0157073242187504 0.02595 Q 2.0119573242187503 0.02595 2.00955732421875 0.027150000000000007 Q 2.0071573242187504 0.02835 2.0071573242187504 0.031200000000000006 Q 2.0071573242187504 0.0339 2.00955732421875 0.03555 Q 2.0119573242187503 0.0372 2.01638232421875 0.03855 Q 2.02080732421875 0.039900000000000005 2.0269573242187504 0.04185 Q 2.0368573242187504 0.04485 2.04405732421875 0.04875 Q 2.05125732421875 0.05265 2.0551573242187504 0.058725000000000006 Q 2.05905732421875 0.0648 2.05905732421875 0.07485 Q 2.05905732421875 0.08445000000000001 2.0556073242187503 0.090975 Q 2.0521573242187503 0.0975 2.04630732421875 0.1014 Q 2.04045732421875 0.1053 2.0332573242187504 0.10702500000000001 Q 2.0260573242187503 0.10875000000000001 2.01855732421875 0.10875000000000001 Q 2.01090732421875 0.10875000000000001 2.0025823242187504 0.107175 Q 1.9942573242187502 0.10560000000000001 1.9864573242187502 0.10282500000000001 Q 1.9786573242187502 0.10005000000000001 1.9722073242187501 0.09630000000000001 L 1.9848073242187503 0.07065 Q 1.9848073242187503 0.07065 1.9878073242187502 0.07245000000000001 Q 1.9908073242187503 0.07425000000000001 1.9957573242187503 0.07650000000000001 Q 2.0007073242187503 0.07875000000000001 2.0067823242187504 0.08055000000000001 Q 2.0128573242187504 0.08235 2.0190073242187503 0.08235 Q 2.02380732421875 0.08235 2.0256823242187503 0.08107500000000001 Q 2.0275573242187503 0.07980000000000001 2.0275573242187503 0.0777 Q 2.0275573242187503 0.07455 2.02425732421875 0.072825 Q 2.02095732421875 0.0711 2.01563232421875 0.069525 Q 2.01030732421875 0.06795000000000001 2.00385732421875 0.06585 Q 1.9945573242187502 0.0627 1.9885573242187502 0.058725000000000006 Q 1.9825573242187502 0.05475000000000001 1.9797073242187502 0.049275000000000006 Q 1.9768573242187502 0.043800000000000006 1.9768573242187502 0.036000000000000004 Q 1.9768573242187502 0.024150000000000005 1.9824073242187503 0.016200000000000006 Q 1.9879573242187503 0.008249999999999993 1.9970323242187502 0.004125000000000004 Q 2.00610732421875 0 2.01660732421875 0 Q 2.02440732421875 0 2.03168232421875 0.0018750000000000017 Q 2.0389573242187504 0.0037500000000000033 2.04533232421875 0.006449999999999997 Q 2.05170732421875 0.009150000000000005 2.0565073242187504 0.011550000000000005 L 2.0439073242187504 0.03570000000000001 M 2.1564079833984375 0.026400000000000007 L 2.125807983398438 0.026400000000000007 L 2.125807983398438 0.10740000000000001 L 2.0965579833984376 0.10740000000000001 L 2.0965579833984376 0.026400000000000007 L 2.0658079833984377 0.026400000000000007 L 2.0658079833984377 0.000899999999999998 L 2.1564079833984375 0.000899999999999998 L 2.1564079833984375 0.026400000000000007 M 2.2444614990234375 0.0819 L 2.2444614990234375 0.10740000000000001 L 2.1685614990234376 0.10740000000000001 L 2.1685614990234376 0.000899999999999998 L 2.2431114990234375 0.000899999999999998 L 2.2431114990234375 0.026400000000000007 L 2.197811499023438 0.026400000000000007 L 2.197811499023438 0.041400000000000006 L 2.236511499023438 0.041400000000000006 L 2.236511499023438 0.0651 L 2.197811499023438 0.0651 L 2.197811499023438 0.0819 L 2.2444614990234375 0.0819 M 2.3401592285156254 0.10740000000000001 L 2.3401592285156254 0.051300000000000005 L 2.3223092285156253 0.09075000000000001 L 2.306709228515625 0.09075000000000001 L 2.2888592285156255 0.051300000000000005 L 2.2888592285156255 0.10740000000000001 L 2.2596092285156253 0.10740000000000001 L 2.2596092285156253 0.000899999999999998 L 2.2915592285156254 0.000899999999999998 L 2.3145092285156252 0.051000000000000004 L 2.337609228515625 0.000899999999999998 L 2.369409228515625 0.000899999999999998 L 2.369409228515625 0.10740000000000001 L 2.3401592285156254 0.10740000000000001" fill="#000000" fill-rule="nonzero"></path></g><g></g><g clip-path="url(#SvgjsClipPath1001)"><g clip-path="url(#SvgjsClipPath10002ba87e05-cb57-4304-8463-a756b0985d48)"><path d=" M -14.847034601033037 -45.98742496688111 L 11.323082194864462 -45.98742496688111 L 11.323082194864462 -16.13651008910044 L -14.847034601033037 -16.13651008910044 Z" fill="#cf9645" transform="matrix(1,0,0,1,0,0)" fill-rule="nonzero"></path></g><g clip-path="url(#SvgjsClipPath10002ba87e05-cb57-4304-8463-a756b0985d48)"><path d=" M -20.88563548496924 -6.916102888767611 L -23.1004117702839 -6.916102888767611 L -23.1004117702839 -45.667216347317556 L -22.977131451751937 -45.667216347317556 C -22.412767683482322 -48.330746165393485 -20.068881572794716 -50.24122105421099 -17.346262876726655 -50.25687322772863 L 15.591463093646787 -50.25687322772863 L 15.591463093646787 -11.867061828252929 L -17.346262876726655 -11.867061828252929 C -19.3443624313442 -11.865002688316352 -20.963628499923523 -10.245736619737002 -20.965687639860132 -8.247637065119456 C -20.965687639860132 -8.207610987674002 -20.961951872631857 -8.168652272293762 -20.959283467468854 -8.129693556913523 Z M -20.96462027779493 -44.35756309330257 L -20.96462027779493 -12.717749394226793 C -19.94187285734086 -13.549549800345588 -18.663490833593265 -14.003071939705166 -17.34519551466142 -14.001785958676692 L 13.456738963223017 -14.001785958676692 L 13.456738963223017 -48.122149097304884 L -17.346262876726655 -48.122149097304884 C -19.310746811058138 -48.11124056122863 -20.911318958956898 -46.54186220094582 -20.96088451056669 -44.57797335976882 Z" fill="#000000" transform="matrix(1,0,0,1,0,0)" fill-rule="nonzero"></path></g><g clip-path="url(#SvgjsClipPath10002ba87e05-cb57-4304-8463-a756b0985d48)"><path d=" M 14.524101028434906 -12.934423893464796 L -17.346262876726655 -12.934423893464796 C -19.93470376772958 -12.934423893464789 -22.03304970507198 -10.836077956122395 -22.03304970507198 -8.247637065119427 C -22.032460312196147 -5.659613014756765 -19.934286994202754 -3.56191753172547 -17.34626287672648 -3.5619175988392726 L 14.524101028434906 -3.5619175988392726 Z" fill="#b7b7a5" transform="matrix(1,0,0,1,0,0)" fill-rule="nonzero"></path></g><g clip-path="url(#SvgjsClipPath10002ba87e05-cb57-4304-8463-a756b0985d48)"><path d=" M 15.591463093646787 -2.4945555336273983 L -17.346262876726655 -2.4945555336273983 C -20.522434070325165 -2.497790320611621 -23.096587766925275 -5.071466526264466 -23.1004117702839 -8.247637065119434 C -23.096882360790296 -11.424102669406338 -20.522728481013967 -13.99825654918282 -17.346262876726897 -14.001785958676678 L 15.591463093646787 -14.001785958676678 Z M -17.346262876726655 -11.867061828252922 C -19.3443624313442 -11.86500268831633 -20.963628499923523 -10.24573661973698 -20.965687639860132 -8.247637065119434 C -20.963040421822704 -6.2499543538834885 -19.3439462818479 -4.631337681953461 -17.346262876726655 -4.629279664051161 L 13.456738963223017 -4.629279664051161 L 13.456738963223017 -11.867061828252922 Z" fill="#000000" transform="matrix(1,0,0,1,0,0)" fill-rule="nonzero"></path></g><g clip-path="url(#SvgjsClipPath10002ba87e05-cb57-4304-8463-a756b0985d48)"><path d=" M 24.411075838492557 -46.95125291176743 L 24.411075838492557 -48.78231253463842 C 24.411075838492557 -49.008593292463345 24.16131311523298 -49.189511162516766 23.850710754256305 -49.189511162516766 L 19.86945025101599 -49.189511162516766 C 19.55778052797411 -49.189511162516766 19.306416761616717 -49.008593292463345 19.306416761616717 -48.78231253463842 L 19.306416761616717 -46.95125291176743" fill="#b7b7a5" transform="matrix(1,0,0,1,0,0)" fill-rule="nonzero"></path></g><g clip-path="url(#SvgjsClipPath10002ba87e05-cb57-4304-8463-a756b0985d48)"><path d=" M 25.47843790370444 -46.95125291176743 L 23.34371377328067 -46.95125291176743 L 23.34371377328067 -48.12214909730486 L 20.37377882682862 -48.12214909730486 L 20.37377882682862 -46.95125291176743 L 18.23905469640485 -46.95125291176743 L 18.23905469640485 -48.78231253463842 C 18.256233158741672 -49.195308223809114 18.438582196635423 -49.58409547765024 18.745150385135737 -49.86136156760978 C 19.051718573636066 -50.138627657569316 19.456809949461558 -50.28113266661078 19.869450251016005 -50.25687322772865 L 23.85071075425632 -50.25687322772865 C 24.2629773626432 -50.28068624255239 24.667538512630806 -50.137949132649375 24.973584912081158 -49.86070119767192 C 25.279631311531517 -49.58345326269443 25.461525164411213 -49.19491982409829 25.47843790370444 -48.78231253463844 Z" fill="#000000" transform="matrix(1,0,0,1,0,0)" fill-rule="nonzero"></path></g><g clip-path="url(#SvgjsClipPath10002ba87e05-cb57-4304-8463-a756b0985d48)"><path d=" M -8.21711513296944 0.20000000000000284 L -11.616663310669281 -1.956071371728001 L -15.015677807336514 0.20000000000000284 L -15.015677807336514 -7.843640523436733 L -11.616663310669281 -7.843640523436733 L -8.21711513296944 -7.843640523436733 L -8.21711513296944 0.20000000000000284 Z" fill="#ba8437" transform="matrix(1,0,0,1,0,0)" fill-rule="nonzero"></path></g><g clip-path="url(#SvgjsClipPath10002ba87e05-cb57-4304-8463-a756b0985d48)"><path d=" M -17.694756591018333 -7.980796548816464 L 14.525702071532713 -7.980796548816464 Z" fill="#b7b7a5" transform="matrix(1,0,0,1,0,0)" fill-rule="nonzero"></path></g><g clip-path="url(#SvgjsClipPath10002ba87e05-cb57-4304-8463-a756b0985d48)"><path d=" M -17.694756591018333 -9.048158614028338 L 14.525702071532713 -9.048158614028338 L 14.525702071532713 -6.913434483604583 L -17.694756591018333 -6.913434483604583 Z" fill="#000000" transform="matrix(1,0,0,1,0,0)" fill-rule="nonzero"></path></g><g clip-path="url(#SvgjsClipPath10002ba87e05-cb57-4304-8463-a756b0985d48)"><path d=" M -17.694756591018333 -13.224212694169822 L -17.694756591018333 -48.73748332789952 Z" fill="#b7b7a5" transform="matrix(1,0,0,1,0,0)" fill-rule="nonzero"></path></g><g clip-path="url(#SvgjsClipPath10002ba87e05-cb57-4304-8463-a756b0985d48)"><path d=" M -18.762118656230214 -48.73748332789952 L -16.627394525806455 -48.73748332789952 L -16.627394525806455 -13.224212694169829 L -18.762118656230214 -13.224212694169829 Z" fill="#000000" transform="matrix(1,0,0,1,0,0)" fill-rule="nonzero"></path></g><g clip-path="url(#SvgjsClipPath10002ba87e05-cb57-4304-8463-a756b0985d48)"><path d=" M 19.305883080584117 -44.314334929661484 L 24.410542157459936 -44.314334929661484 L 24.410542157459936 -19.46667973256151 L 19.305883080584117 -19.46667973256151 Z" fill="#ba8437" transform="matrix(1,0,0,1,0,0)" fill-rule="nonzero"></path></g><g clip-path="url(#SvgjsClipPath10002ba87e05-cb57-4304-8463-a756b0985d48)"><path d=" M 25.47843790370444 -18.39985134838224 L 18.23905469640485 -18.39985134838224 L 18.23905469640485 -45.38169699487336 L 25.47843790370444 -45.38169699487336 Z M 20.37377882682862 -20.534575478805998 L 23.34371377328067 -20.534575478805998 L 23.34371377328067 -43.2469728644496 L 20.37377882682862 -43.2469728644496 Z" fill="#ba8437" transform="matrix(1,0,0,1,0,0)" fill-rule="nonzero"></path></g><g clip-path="url(#SvgjsClipPath10002ba87e05-cb57-4304-8463-a756b0985d48)"><path d=" M 21.86221522676658 -9.169304208429892 L 18.246526230861328 -18.117534082133695 L 18.246526230861328 -19.11871969930244 L 20.381250361285097 -19.11871969930244 L 20.381250361285097 -18.532737925501113 L 21.86221522676658 -14.867416593563519 L 23.343180092248055 -18.532737925501113 L 23.343180092248055 -19.11871969930244 L 25.477904222671825 -19.11871969930244 L 25.477904222671825 -18.117534082133695 L 21.86221522676658 -9.169304208429892 Z" fill="#000000" transform="matrix(1,0,0,1,0,0)" fill-rule="nonzero"></path></g><g clip-path="url(#SvgjsClipPath10002ba87e05-cb57-4304-8463-a756b0985d48)"><path d=" M -8.798293777477308 -33.28368166672931 L 5.611094102883079 -33.28368166672931 L 5.611094102883079 -31.148957536305545 L -8.798293777477308 -31.148957536305545 Z" fill="#000000" transform="matrix(1,0,0,1,0,0)" fill-rule="nonzero"></path></g><g clip-path="url(#SvgjsClipPath10002ba87e05-cb57-4304-8463-a756b0985d48)"><path d=" M -7.108125947214296 -37.8199704438798 L 3.9209262726200684 -37.8199704438798 L 3.9209262726200684 -35.685246313456034 L -7.108125947214296 -35.685246313456034 Z" fill="#000000" transform="matrix(1,0,0,1,0,0)" fill-rule="nonzero"></path></g></g></g><defs><clipPath id="SvgjsClipPath1001"><path d=" M -23.0993444082187 -50.25687322772863 h 48.57724863089052 v 50.456873227728636 h -48.57724863089052 Z"></path></clipPath><clipPath id="SvgjsClipPath10002ba87e05-cb57-4304-8463-a756b0985d48"><path d=" M -23.099344408218695 -50.25687322772863 L 25.477904222671825 -50.25687322772863 L 25.477904222671825 0.20000000000000284 L -23.09934440821869 0.20000000000000284 Z"></path></clipPath></defs></svg>