<svg xmlns="http://www.w3.org/2000/svg" version="1.1" xmlns:xlink="http://www.w3.org/1999/xlink" xmlns:svgjs="http://svgjs.dev/svgjs" viewBox="0 0 9.689668455499607 9.492600197685533"><g transform="matrix(1,0,0,1,4.852147933133052,7.044974634838702)"><rect width="9.689668455499607" height="9.689668455499607" x="-4.852147933133052" y="-7.143508763745739" fill="#ffffff"></rect><g><path d=" M -2.518485336578474 0.9510571045174158 L -2.5569585102259857 0.9175785306306982 L -2.127645033325724 0.4242166567979013 L -2.4316585427364537 0.15967027883030888 L -2.4014621819758846 0.12496898495216108 L -2.0589754989176434 0.4229939368064711 L -2.518485336578474 0.9510571045174158 M -3.0157453154287923 0.4742394171323479 L -3.049361243208497 0.4358861982386274 L -2.5229445132946857 -0.02550888893379724 L -2.489328585514981 0.012844329959923309 L -3.0157453154287923 0.4742394171323479 M -3.2269424554534387 -0.507916264080047 Q -3.209773748131578 -0.5652790175782558 -3.148755330260652 -0.6034988119331332 Q -3.0733297859479802 -0.6507427243995788 -2.998146859685877 -0.6211365156138005 Q -2.922963933423773 -0.591530306828022 -2.8550176323484355 -0.4830531195019321 L -2.6893985234773004 -0.21863997539458807 L -3.2826331416668544 0.15294135861116398 L -3.437635640994968 -0.0945222249764785 Q -3.4981503153901907 -0.1911347199387773 -3.4924503224809778 -0.26963319177635464 Q -3.486750329571765 -0.348131663613932 -3.4138672193370483 -0.3937830846489244 Q -3.3630185377779434 -0.42563291327798886 -3.311550778682297 -0.42070140502265296 Q -3.2600830195866495 -0.41576989676731707 -3.2161635693527604 -0.3795610319528423 Q -3.2441111627752997 -0.450553510581838 -3.2269424554534387 -0.507916264080047 M -3.2724164628582155 0.08636343829127777 L -3.0359700936083795 -0.06173826483387196 L -3.162838577647486 -0.26428551304430536 Q -3.211674981545385 -0.34225349143493244 -3.2680365600868333 -0.3653591717823307 Q -3.3243981386282817 -0.3884648521297288 -3.382874122421252 -0.35183754920630467 Q -3.4405026281882374 -0.31574107676003166 -3.4443119894917293 -0.2549464325349072 Q -3.4481213507952213 -0.19415178830978275 -3.3992849468973225 -0.11618380991915567 L -3.2724164628582155 0.08636343829127777 M -3.00440544413409 -0.5717874515831161 Q -3.062359514106992 -0.5974355660084696 -3.1250728880298877 -0.55815411069929 Q -3.187786261952783 -0.5188726553901105 -3.1895793928118295 -0.45580099232560634 Q -3.191372523670876 -0.39272932926110216 -3.1372278150014665 -0.30628657061062436 L -2.998681060465036 -0.08509480582851925 L -2.7537599109553486 -0.23850481372517973 L -2.892306665491779 -0.4596965785072848 Q -2.946451374161189 -0.5461393371577626 -3.00440544413409 -0.5717874515831161 M -3.228173542047271 -1.3391565365658555 L -3.394090348131437 -1.104387259489767 Q -3.3771796158958787 -1.0711002179381774 -3.366966474982185 -1.0418309208390493 L -3.301075243280935 -0.852996746005964 L -3.0848601130970525 -0.9284422063038952 L -3.0680578490132335 -0.8802894917214584 L -3.728977460929032 -0.6496701807670837 L -3.8116709567141007 -0.8866570701826056 Q -3.8551591696369254 -1.011287625572442 -3.820857701889555 -1.1026914510414896 Q -3.786556234142185 -1.194095276510537 -3.6817532671098223 -1.2306649101047307 Q -3.6033870845540923 -1.2580097712607494 -3.53603954342723 -1.236496782064322 Q -3.468692002300368 -1.2149837928678946 -3.420949035672569 -1.1479717854544695 L -3.2472819992406334 -1.3939184472674504 L -3.228173542047271 -1.3391565365658555 M -3.409454164319629 -1.027005393706268 Q -3.446353254072329 -1.1327525316127958 -3.5125276256953866 -1.1721505333424966 Q -3.5787019973184435 -1.2115485350721973 -3.6646215468674974 -1.1815680246481286 Q -3.7505410964165513 -1.15158751422406 -3.7778396413358712 -1.0795733528022404 Q -3.805138186255191 -1.007559191380421 -3.768239096502491 -0.9018120534738931 L -3.702347864801241 -0.7129778786408079 L -3.3435629326183793 -0.8381712188731828 L -3.409454164319629 -1.027005393706268 M -3.52860947796197 -1.9852043143682736 L -3.4804392081334146 -1.582072046862131 L -3.2742712014500364 -1.5170739467344923 L -3.2677456722860696 -1.462462432663463 L -4.001005313022756 -1.699135834774274 L -4.007056258247525 -1.7497756023674103 L -3.3502046317216507 -2.152553383197377 L -3.343679102557684 -2.0979418691263483 L -3.52860947796197 -1.9852043143682736 M -3.5690514788881313 -1.9612367412519078 L -3.9483670119522385 -1.7306034254098717 L -3.5255084024667527 -1.596829001905222 L -3.5690514788881313 -1.9612367412519078 M -3.292704396621155 -2.7754203516818032 L -3.541688022169502 -2.6317117777942274 Q -3.540271523754073 -2.5944023482590675 -3.5432544777680284 -2.563546198380143 L -3.56249934237419 -2.364474263677407 L -3.334561977139557 -2.342438893703352 L -3.3394694176141284 -2.291675550354154 L -4.036221189073705 -2.35903257647572 L -4.012068883992972 -2.608867854527654 Q -3.9993672733529055 -2.74025533143146 -3.92994046953099 -2.808893286755561 Q -3.860513665709074 -2.8775312420796615 -3.7500287419490554 -2.8668503422232416 Q -3.66741388904742 -2.8588637234116843 -3.6152656012227062 -2.8111242630361124 Q -3.5631173133979925 -2.76338480266054 -3.547825762426612 -2.6825382290232507 L -3.2871233858853683 -2.8331512127455967 L -3.292704396621155 -2.7754203516818032 M -3.588045663076144 -2.5678762929165297 Q -3.5772685388966936 -2.679356576350062 -3.6208616076768028 -2.742845901077394 Q -3.6644546764569124 -2.8063352258047263 -3.7550324067466576 -2.81509163920053 Q -3.8456101370364024 -2.8238480525963334 -3.9005576759341474 -2.7698849358490514 Q -3.9555052148318923 -2.7159218191017693 -3.966282339011343 -2.604441535668237 L -3.985527203617505 -2.405369600965501 L -3.6072905276823057 -2.368804358213793 L -3.588045663076144 -2.5678762929165297 M -3.4067325571834624 -3.2821801610868055 L -3.176472794359243 -3.2110363516292417 L -3.1915281233315906 -3.1623091819029545 L -3.42178788615581 -3.233452991360519 L -3.9435795268336102 -3.0995183665662944 L -3.927048185216915 -3.1530227097951586 L -3.4587228488005572 -3.273124247131305 L -3.7776757056089174 -3.6364726682559683 L -3.762029971578831 -3.6871107073832863 L -3.4067325571834624 -3.2821801610868055 M -2.5344616039011876 -4.388265945145673 L -3.0225555251642913 -4.735492562826415 L -2.780976802652854 -4.203022168504118 L -2.795502699798914 -4.182675220032613 L -3.3759406955362805 -4.237051070411146 L -2.89005556603674 -3.89017264656323 L -2.9191073603288604 -3.8494787496202196 L -3.4888219175310016 -4.256203869709903 L -3.463837374439778 -4.291200621080892 L -2.841665177247736 -4.231604001703394 L -3.100108909902432 -4.800688210807379 L -3.0757054026970514 -4.8348710842395075 L -2.505409809609067 -4.428959842088684 L -2.5344616039011876 -4.388265945145673 M -2.1148866782488356 -5.035878412780611 L -2.425783200076066 -4.774766649897874 L -2.3672383063684905 -4.566674133403963 L -2.409354830261342 -4.531301850254824 L -2.612974421368602 -5.274418975691529 L -2.5739209173952307 -5.3072187291570945 L -1.8771551192516742 -4.978278882775765 L -1.9192716431445256 -4.9429065996266255 L -2.1148866782488356 -5.035878412780611 M -2.157090716964784 -5.056586360918047 L -2.5578151313018185 -5.247615007341144 L -2.438122794577083 -4.820556762450154 L -2.157090716964784 -5.056586360918047 M -1.5634987736441237 -5.9308901333655655 L -1.2479341498085494 -5.306054980558432 L -1.2854242589769773 -5.287121103128298 L -1.985295200664165 -5.614800313609966 L -1.7112047845326948 -5.072086352314629 L -1.7567284885229286 -5.049095215435179 L -2.072293112358503 -5.673930368242312 L -2.033910381543208 -5.693315052277926 L -1.3349320615028875 -5.365185035190779 L -1.6090224776343576 -5.907898996486116 L -1.5634987736441237 -5.9308901333655655 M -0.6313649853599808 -5.681685734299297 L -1.0258957713652657 -5.585865804774943 L -1.065887677370617 -5.373426054600784 L -1.119333966115175 -5.360445522276056 L -0.971637014325387 -6.116666131907931 L -0.9220777283986148 -6.128702625518133 L -0.44396722652484777 -5.524472248924888 L -0.497413515269406 -5.511491716600161 L -0.6313649853599808 -5.681685734299297 M -0.6599766649256154 -5.7189868306965 L -0.934126704710865 -6.068148334424712 L -1.016609173457486 -5.632371278638772 L -0.6599766649256154 -5.7189868306965 M 0.18027764994463147 -5.885539258956837 L 0.22927213753295783 -5.886274232396723 L 0.23320199551765652 -5.624303706924448 Q 0.18786714658483994 -5.5796186817791185 0.12271950274977894 -5.555638804741485 Q 0.057571858914718055 -5.531658927703851 -0.015419928716870146 -5.530563967272999 Q -0.11940822890433828 -5.529004023645486 -0.2035888103708693 -5.573746393989006 Q -0.28776939183740036 -5.618488764332526 -0.33647900426752886 -5.698767177725584 Q -0.38518861669765736 -5.779045591118642 -0.38670356195130073 -5.880034228800702 Q -0.3882185072049441 -5.981022866482762 -0.3419388069638277 -6.062726228381722 Q -0.29565910672271134 -6.144429590280683 -0.21285847538821184 -6.191676870102999 Q -0.1300578440537124 -6.238924149925316 -0.025069656364441695 -6.240499093010786 Q 0.05192168127435681 -6.241654051273465 0.11678191186056619 -6.21812427251752 Q 0.18164214244677568 -6.194594493761574 0.22834194205366698 -6.148289756242869 L 0.19685552356651792 -6.113813598526962 Q 0.1522004973371024 -6.157148672456174 0.097414139058703 -6.175829008282674 Q 0.042627780780303604 -6.194509344109176 -0.02336479433866645 -6.193519379884022 Q -0.11335466950089845 -6.1921694286679045 -0.1852465350633108 -6.151086467893929 Q -0.2571384006257231 -6.110003507119953 -0.29707632641366977 -6.03889646046664 Q -0.3370142522016165 -5.9677894138133265 -0.3357092993593693 -5.880799201156503 Q -0.3344193459750789 -5.794808876001481 -0.2918665528643129 -5.724939284629609 Q -0.24931375975354694 -5.655069693257737 -0.17671438157650832 -5.615654210407627 Q -0.10411500339946966 -5.5762387275575165 -0.01412512823723766 -5.577588678773634 Q 0.10586137197907164 -5.579388613728458 0.18389251931223594 -5.644566371022416 L 0.18027764994463147 -5.885539258956837 M 0.9504936978172269 -5.4562263392545205 L 0.9411585995732001 -5.411183515844189 L 0.46820895376471267 -5.509202047406471 L 0.6102647966086008 -6.194636316694134 L 1.0685265652180669 -6.099661838907077 L 1.0591914669740399 -6.054619015496746 L 0.6508684808412464 -6.139243710448033 L 0.5948578913770848 -5.868986769986041 L 0.9600964377260823 -5.793291299442083 L 0.9509642764004038 -5.749227667845019 L 0.5857257300514063 -5.824923138388976 L 0.5274828344854122 -5.543895087981035 L 0.9504936978172269 -5.4562263392545205 M 1.728413965721519 -5.068543583327347 L 1.9886876008846093 -5.608043013205629 L 1.5043814093021073 -5.280426602147128 L 1.4818829362680992 -5.29132700173329 L 1.4379528879665577 -5.872648901248717 L 1.1776513458489999 -5.335385365196603 L 1.1326543997809837 -5.357186164368928 L 1.4378655881935305 -5.987143409321155 L 1.4765629618120246 -5.968394722032956 L 1.5223591971532522 -5.345054762758267 L 2.039924726583588 -5.6954487163954495 L 2.0777221612807217 -5.6771360450906965 L 1.7734109117895351 -5.046742784155023 L 1.728413965721519 -5.068543583327347 M 2.3785078809978013 -4.617493315045007 L 2.3489450847393147 -4.5822507118866245 L 1.9788977515762993 -4.89266007260073 L 2.4287663902923953 -5.428960555445681 L 2.7873215702515903 -5.128191236989776 L 2.757758773993104 -5.092948633831394 L 2.4382769149268984 -5.360941808609411 L 2.2609001373759803 -5.149486189659116 L 2.5466716803776466 -4.909770472171825 L 2.5177515536030404 -4.8752940125603645 L 2.231980010601374 -5.115009730047656 L 2.0475338687277747 -4.895126532081226 L 2.3785078809978013 -4.617493315045007 M 3.388635386890636 -4.407343476423438 L 2.8302385972296973 -3.9852143192969045 L 2.8049108478021054 -4.018718126676561 L 3.0022674766085258 -4.765874978392561 L 2.5172599793030246 -4.399225653345514 L 2.4865048549980915 -4.439908848020812 L 3.04490164465903 -4.862038005147345 L 3.07083243573966 -4.827736488068173 L 2.872872765280202 -4.0813773460516884 L 3.3578802625857027 -4.448026671098734 L 3.388635386890636 -4.407343476423438 M 3.599887444130839 -3.915728756033375 L 3.4930742265027375 -4.143971908263473 L 3.534737659052676 -4.163469559100349 L 3.7699810550193282 -3.6607911881173947 L 3.72831762246939 -3.641293537280519 L 3.6215044048412883 -3.869536689510617 L 3.0291590811965095 -3.59233095804721 L 3.0075421204860606 -3.638523024569968 L 3.599887444130839 -3.915728756033375 M 3.2744812433058703 -2.9418880302009245 Q 3.288038226661779 -3.0150228933120813 3.3223321101244814 -3.0609459763645788 L 3.3638514805515567 -3.045161747547836 Q 3.332148590686152 -3.0017460041569644 3.319298922537807 -2.935856809075544 Q 3.306449254389462 -2.8699676139941244 3.3188694231224924 -2.802094648767585 Q 3.3368696676631164 -2.7037280324972377 3.3834291065615663 -2.6604011511247974 Q 3.4299885454600165 -2.6170742697523575 3.4899921813849284 -2.628054418922138 Q 3.5362244910319913 -2.6365145338562312 3.55890707756172 -2.6681135887206 Q 3.581589664091449 -2.6997126435849683 3.5891445587157516 -2.7417593267742006 Q 3.596699453340054 -2.783806009963433 3.6001979456556854 -2.853575348153769 Q 3.6050274144507712 -2.932737689144655 3.6143632916680435 -2.9817182097276786 Q 3.6236991688853157 -3.0306987303107027 3.6547365705109933 -3.069417972301299 Q 3.685773972136671 -3.108137214291896 3.7477449403869896 -3.1194773683524892 Q 3.7979119146848666 -3.128657493068207 3.8445777926257327 -3.1097486106049788 Q 3.8912436705665985 -3.09083972814175 3.9258254603542317 -3.0407463172468634 Q 3.9604072501418646 -2.9906529063519764 3.9753474531105826 -2.9090086148475884 Q 3.9857875949441444 -2.851955977410787 3.9791454071209347 -2.7938106307274864 Q 3.972503219297725 -2.735665284044186 3.95135700084098 -2.6901149004565625 L 3.907606641707419 -2.7014244572862727 Q 3.9285728577187577 -2.7479585070365995 3.9342377266662947 -2.8003336849342184 Q 3.939902595613832 -2.8527088628318373 3.9310824757889264 -2.9009085048043075 Q 3.913622238584521 -2.9963241225865445 3.8662591359687735 -3.0384873353508746 Q 3.8188960333530266 -3.080650548115205 3.7579087312654114 -3.069490396500018 Q 3.711676421618348 -3.061030281565925 3.688993835088619 -3.0294312267015564 Q 3.6663112485588902 -2.9978321718371883 3.6587563539345878 -2.9557854886479555 Q 3.6512014593102853 -2.913738805458723 3.646899303277357 -2.8428057986602777 Q 3.642069834482271 -2.763643457669392 3.632643956042296 -2.71515477016772 Q 3.62321807760232 -2.6666660826660475 3.593164342139346 -2.628126843120857 Q 3.5631106066763722 -2.5895876035756666 3.502123304588757 -2.5784274519604797 Q 3.45195633029088 -2.569247327244762 3.4056922842086625 -2.588738044012045 Q 3.359428238126445 -2.6082287607793284 3.3245764446707025 -2.6597976709182705 Q 3.2897246512149603 -2.7113665810572125 3.2747844482462423 -2.7930108725616005 Q 3.260924259949962 -2.868753167089768 3.2744812433058703 -2.9418880302009245 M 3.573414840006847 -2.1604179277414914 L 3.332415688180275 -2.1610573171947265 L 3.3325509946620797 -2.212057137705744 L 3.573550146488652 -2.211417748252509 L 4.033296696340141 -2.4921989974477716 L 4.033148124516982 -2.4361991945337134 L 3.620478348233928 -2.1842931490673654 L 4.031805671972016 -1.930200975345973 L 4.03166505935367 -1.8772011618737392 L 3.573414840006847 -2.1604179277414914 M 3.3215476413082774 -1.7167601912185908 Q 3.3605094516479563 -1.7801200944307556 3.409029212938566 -1.8106296464481524 L 3.442089394515651 -1.780964441340313 Q 3.396889221206733 -1.7518621333073785 3.3611942271668993 -1.695008220508907 Q 3.325499233127065 -1.6381543077104355 3.3126681841509265 -1.5703578167822765 Q 3.2940724609971026 -1.4721020328284231 3.321925840091117 -1.4149252082135046 Q 3.3497792191851308 -1.3577483835985862 3.4097152473969814 -1.3464049924747536 Q 3.455895465855293 -1.3376650025924564 3.4884279306139043 -1.358987261776926 Q 3.5209603953725157 -1.3803095209613958 3.5431370522271233 -1.4168224760698638 Q 3.565313709081731 -1.4533354311783315 3.5936797262589475 -1.5171740485623402 Q 3.626667032038624 -1.5892978148075807 3.653000084416846 -1.6316395241784343 Q 3.679333136795068 -1.6739812335492879 3.7222226658027555 -1.6989409671516063 Q 3.7651121948104436 -1.7239007007539247 3.827013338701371 -1.7121853951670156 Q 3.8771237885178365 -1.7027015763585653 3.913861651446692 -1.6682693323506497 Q 3.950599514375547 -1.6338370883427342 3.964842834013638 -1.5746561974598894 Q 3.9790861536517292 -1.5154753065770448 3.9636517034340555 -1.4339230058953465 Q 3.9528661840048374 -1.3769346512021112 3.925749095766541 -1.3250726851241035 Q 3.8986320075282443 -1.2732107190460957 3.862513583688559 -1.2383186073396246 L 3.8257618996667055 -1.2646114527839245 Q 3.8620662807379293 -1.300486122329934 3.8861954885236885 -1.3473159347535564 Q 3.9103246963094476 -1.394145747177179 3.919436600654821 -1.442291081314567 Q 3.9374744521140306 -1.537599191749805 3.9084525579489395 -1.593979415756723 Q 3.8794306637838485 -1.6503596397636413 3.8185120777324597 -1.6618889881190122 Q 3.772331859274148 -1.6706289780013093 3.739799394515537 -1.6493067188168395 Q 3.7072669297569254 -1.6279844596323698 3.685090272902318 -1.591471504523902 Q 3.6629136160477103 -1.554958549415434 3.633379083799417 -1.4903233314234254 Q 3.60039177801974 -1.4181995651781847 3.5741517042572872 -1.3763491347271004 Q 3.5479116304948346 -1.3344987042760161 3.5060046593266856 -1.3093530134421596 Q 3.464097688158536 -1.2842073226083028 3.403179102107147 -1.2957366709636737 Q 3.353068652290682 -1.3052204897721238 3.316915046897365 -1.3400510340840395 Q 3.280761441504048 -1.3748815783959554 3.2667970577132643 -1.435536306038108 Q 3.2528326739224807 -1.4961910336802604 3.2682671241401544 -1.5777433343619587 Q 3.282585830968599 -1.653400288006426 3.3215476413082774 -1.7167601912185908 M 3.7338545977624786 -0.8060231218470308 L 3.823661651842735 -1.0414773489006683 L 3.8666413917017324 -1.025083997759034 L 3.668852046405929 -0.5065240929385231 L 3.625872306546932 -0.5229174440801572 L 3.7156793606271883 -0.7583716711337947 L 3.1046195808927486 -0.9914423591039845 L 3.1227948180280385 -1.0390938098172207 L 3.7338545977624786 -0.8060231218470308 M 2.7344167196057154 -0.2002833205579171 L 2.695254377295937 -0.22441444039956016 L 2.948631135633189 -0.6356190346522337 L 3.544579822955904 -0.26840634140983954 L 3.2990719080452746 0.13002792382877582 L 3.259909565735496 0.10589680398713275 L 3.4786634129956084 -0.24911834260368482 L 3.243689359136938 -0.393905061653543 L 3.048017452594919 -0.07634954683729622 L 3.0097064655527443 -0.09995607711716437 L 3.205378372094763 -0.41751159193341125 L 2.9610394102924498 -0.5680687961627928 L 2.7344167196057154 -0.2002833205579171 M 2.1047617874052666 0.3988765319148756 L 2.523216594393619 0.8274760822043515 L 2.3803259712483227 0.26049524494691023 L 2.3982432059230447 0.24306043202531746 L 2.9597190248100977 0.3999358756266459 L 2.5433756922424617 -0.027927688405715995 L 2.579210161591906 -0.06279731424890159 L 3.067384923396504 0.438885256643315 L 3.036567279755982 0.4688731348684546 L 2.4349541500051943 0.2994280342858119 L 2.5879197235009426 0.9054408504251381 L 2.5578187692474095 0.934731336133414 L 2.0689273180558225 0.43374615775806113 L 2.1047617874052666 0.3988765319148756" fill="#1f2c3c" fill-rule="nonzero"></path></g><g><path d=" M -3.57204052734375 1.2254149845648106 L -3.53504052734375 1.2254149845648106 L -3.53504052734375 1.5434149845648106 L -3.33904052734375 1.5434149845648106 L -3.33904052734375 1.5754149845648107 L -3.57204052734375 1.5754149845648107 L -3.57204052734375 1.2254149845648106 M -3.0250458984375 1.5434149845648106 L -3.0250458984375 1.5754149845648107 L -3.2725458984375 1.5754149845648107 L -3.2725458984375 1.2254149845648106 L -3.0325458984374998 1.2254149845648106 L -3.0325458984374998 1.2574149845648106 L -3.2355458984375 1.2574149845648106 L -3.2355458984375 1.3819149845648107 L -3.0545458984375 1.3819149845648107 L -3.0545458984375 1.4134149845648107 L -3.2355458984375 1.4134149845648107 L -3.2355458984375 1.5434149845648106 L -3.0250458984375 1.5434149845648106 M -2.713542724609375 1.4819149845648107 L -2.908542724609375 1.4819149845648107 L -2.950542724609375 1.5754149845648107 L -2.989042724609375 1.5754149845648107 L -2.829042724609375 1.2254149845648106 L -2.7925427246093752 1.2254149845648106 L -2.632542724609375 1.5754149845648107 L -2.671542724609375 1.5754149845648107 L -2.713542724609375 1.4819149845648107 M -2.727042724609375 1.4519149845648107 L -2.811042724609375 1.2639149845648108 L -2.895042724609375 1.4519149845648107 L -2.727042724609375 1.4519149845648107 M -2.3305527343750003 1.5754149845648107 L -2.410552734375 1.4629149845648106 Q -2.424052734375 1.4644149845648107 -2.438552734375 1.4644149845648107 L -2.5325527343750003 1.4644149845648107 L -2.5325527343750003 1.5754149845648107 L -2.569552734375 1.5754149845648107 L -2.569552734375 1.2254149845648106 L -2.438552734375 1.2254149845648106 Q -2.3715527343750002 1.2254149845648106 -2.333552734375 1.2574149845648106 Q -2.295552734375 1.2894149845648106 -2.295552734375 1.3454149845648107 Q -2.295552734375 1.3864149845648106 -2.3163027343750002 1.4146649845648107 Q -2.3370527343750003 1.4429149845648106 -2.3755527343750003 1.4554149845648108 L -2.290052734375 1.5754149845648107 L -2.3305527343750003 1.5754149845648107 M -2.360052734375 1.4099149845648107 Q -2.332552734375 1.3869149845648105 -2.332552734375 1.3454149845648107 Q -2.332552734375 1.3029149845648107 -2.360052734375 1.2801649845648106 Q -2.3875527343750003 1.2574149845648106 -2.4395527343750003 1.2574149845648106 L -2.5325527343750003 1.2574149845648106 L -2.5325527343750003 1.4329149845648106 L -2.4395527343750003 1.4329149845648106 Q -2.3875527343750003 1.4329149845648106 -2.360052734375 1.4099149845648107 M -1.9105415039062503 1.2254149845648106 L -1.9105415039062503 1.5754149845648107 L -1.9410415039062503 1.5754149845648107 L -2.1660415039062504 1.2914149845648106 L -2.1660415039062504 1.5754149845648107 L -2.2030415039062503 1.5754149845648107 L -2.2030415039062503 1.2254149845648106 L -2.1725415039062503 1.2254149845648106 L -1.9470415039062503 1.5094149845648106 L -1.9470415039062503 1.2254149845648106 L -1.9105415039062503 1.2254149845648106 M -1.2920354003906254 1.2254149845648106 L -1.2920354003906254 1.5754149845648107 L -1.3275354003906255 1.5754149845648107 L -1.3275354003906255 1.2954149845648106 L -1.4650354003906254 1.5309149845648107 L -1.4825354003906255 1.5309149845648107 L -1.6200354003906254 1.2969149845648107 L -1.6200354003906254 1.5754149845648107 L -1.6555354003906255 1.5754149845648107 L -1.6555354003906255 1.2254149845648106 L -1.6250354003906256 1.2254149845648106 L -1.4730354003906254 1.4849149845648106 L -1.3225354003906253 1.2254149845648106 L -1.2920354003906254 1.2254149845648106 M -1.1142768554687505 1.5551649845648106 Q -1.1565268554687507 1.5319149845648106 -1.1802768554687506 1.4914149845648106 Q -1.2040268554687505 1.4509149845648106 -1.2040268554687505 1.4004149845648106 Q -1.2040268554687505 1.3499149845648106 -1.1802768554687506 1.3094149845648106 Q -1.1565268554687507 1.2689149845648107 -1.1142768554687505 1.2456649845648107 Q -1.0720268554687507 1.2224149845648107 -1.0200268554687506 1.2224149845648107 Q -0.9680268554687506 1.2224149845648107 -0.9262768554687506 1.2454149845648106 Q -0.8845268554687505 1.2684149845648107 -0.8605268554687506 1.3091649845648106 Q -0.8365268554687506 1.3499149845648106 -0.8365268554687506 1.4004149845648106 Q -0.8365268554687506 1.4509149845648106 -0.8605268554687506 1.4916649845648107 Q -0.8845268554687505 1.5324149845648107 -0.9262768554687506 1.5554149845648106 Q -0.9680268554687506 1.5784149845648106 -1.0200268554687506 1.5784149845648106 Q -1.0720268554687507 1.5784149845648106 -1.1142768554687505 1.5551649845648106 M -0.9450268554687505 1.5266649845648106 Q -0.9115268554687506 1.5079149845648105 -0.8925268554687505 1.4746649845648108 Q -0.8735268554687505 1.4414149845648105 -0.8735268554687505 1.4004149845648106 Q -0.8735268554687505 1.3594149845648107 -0.8925268554687505 1.3261649845648107 Q -0.9115268554687506 1.2929149845648107 -0.9450268554687505 1.2741649845648106 Q -0.9785268554687505 1.2554149845648106 -1.0200268554687506 1.2554149845648106 Q -1.0615268554687505 1.2554149845648106 -1.0952768554687506 1.2741649845648106 Q -1.1290268554687506 1.2929149845648107 -1.1482768554687506 1.3261649845648107 Q -1.1675268554687506 1.3594149845648107 -1.1675268554687506 1.4004149845648106 Q -1.1675268554687506 1.4414149845648105 -1.1482768554687506 1.4746649845648108 Q -1.1290268554687506 1.5079149845648105 -1.0952768554687506 1.5266649845648106 Q -1.0615268554687505 1.5454149845648106 -1.0200268554687506 1.5454149845648106 Q -0.9785268554687505 1.5454149845648106 -0.9450268554687505 1.5266649845648106 M -0.5095322265625004 1.5754149845648107 L -0.5895322265625005 1.4629149845648106 Q -0.6030322265625004 1.4644149845648107 -0.6175322265625005 1.4644149845648107 L -0.7115322265625005 1.4644149845648107 L -0.7115322265625005 1.5754149845648107 L -0.7485322265625004 1.5754149845648107 L -0.7485322265625004 1.2254149845648106 L -0.6175322265625005 1.2254149845648106 Q -0.5505322265625004 1.2254149845648106 -0.5125322265625005 1.2574149845648106 Q -0.47453222656250044 1.2894149845648106 -0.47453222656250044 1.3454149845648107 Q -0.47453222656250044 1.3864149845648106 -0.4952822265625004 1.4146649845648107 Q -0.5160322265625005 1.4429149845648106 -0.5545322265625005 1.4554149845648108 L -0.46903222656250043 1.5754149845648107 L -0.5095322265625004 1.5754149845648107 M -0.5390322265625005 1.4099149845648107 Q -0.5115322265625004 1.3869149845648105 -0.5115322265625004 1.3454149845648107 Q -0.5115322265625004 1.3029149845648107 -0.5390322265625005 1.2801649845648106 Q -0.5665322265625005 1.2574149845648106 -0.6185322265625004 1.2574149845648106 L -0.7115322265625005 1.2574149845648106 L -0.7115322265625005 1.4329149845648106 L -0.6185322265625004 1.4329149845648106 Q -0.5665322265625005 1.4329149845648106 -0.5390322265625005 1.4099149845648107 M -0.13452099609375046 1.5434149845648106 L -0.13452099609375046 1.5754149845648107 L -0.38202099609375045 1.5754149845648107 L -0.38202099609375045 1.2254149845648106 L -0.14202099609375046 1.2254149845648106 L -0.14202099609375046 1.2574149845648106 L -0.3450209960937505 1.2574149845648106 L -0.3450209960937505 1.3819149845648107 L -0.16402099609375043 1.3819149845648107 L -0.16402099609375043 1.4134149845648107 L -0.3450209960937505 1.4134149845648107 L -0.3450209960937505 1.5434149845648106 L -0.13452099609375046 1.5434149845648106 M -0.02201293945312545 1.5311649845648108 Q -0.014512939453125442 1.5389149845648107 -0.014512939453125442 1.5504149845648107 Q -0.014512939453125442 1.5564149845648108 -0.016262939453125444 1.5634149845648107 Q -0.018012939453125446 1.5704149845648108 -0.02151293945312545 1.5794149845648107 L -0.04251293945312544 1.6484149845648106 L -0.06651293945312545 1.6484149845648106 L -0.049512939453125446 1.5759149845648106 Q -0.057512939453125446 1.5734149845648107 -0.06251293945312544 1.5666649845648106 Q -0.06751293945312545 1.5599149845648106 -0.06751293945312545 1.5504149845648107 Q -0.06751293945312545 1.5389149845648107 -0.06001293945312544 1.5311649845648108 Q -0.05251293945312544 1.5234149845648106 -0.041012939453125445 1.5234149845648106 Q -0.029512939453125442 1.5234149845648106 -0.02201293945312545 1.5311649845648108 M 0.45598657226562456 1.4004149845648106 L 0.4914865722656246 1.4004149845648106 L 0.4914865722656246 1.5339149845648106 Q 0.46698657226562457 1.5554149845648106 0.4334865722656246 1.5669149845648107 Q 0.39998657226562456 1.5784149845648106 0.3629865722656246 1.5784149845648106 Q 0.3104865722656246 1.5784149845648106 0.26848657226562456 1.5554149845648106 Q 0.22648657226562458 1.5324149845648107 0.20248657226562455 1.4916649845648107 Q 0.17848657226562456 1.4509149845648106 0.17848657226562456 1.4004149845648106 Q 0.17848657226562456 1.3499149845648106 0.20248657226562455 1.3091649845648106 Q 0.22648657226562458 1.2684149845648107 0.26848657226562456 1.2454149845648106 Q 0.3104865722656246 1.2224149845648107 0.36348657226562453 1.2224149845648107 Q 0.40348657226562457 1.2224149845648107 0.4369865722656246 1.2351649845648107 Q 0.47048657226562457 1.2479149845648108 0.4934865722656246 1.2729149845648107 L 0.47048657226562457 1.2964149845648105 Q 0.4289865722656246 1.2554149845648106 0.3649865722656246 1.2554149845648106 Q 0.3224865722656246 1.2554149845648106 0.2882365722656246 1.2741649845648106 Q 0.2539865722656246 1.2929149845648107 0.23448657226562458 1.3261649845648107 Q 0.21498657226562456 1.3594149845648107 0.21498657226562456 1.4004149845648106 Q 0.21498657226562456 1.4414149845648105 0.23448657226562458 1.4744149845648107 Q 0.2539865722656246 1.5074149845648106 0.2879865722656246 1.5264149845648107 Q 0.32198657226562455 1.5454149845648106 0.36448657226562453 1.5454149845648106 Q 0.4184865722656246 1.5454149845648106 0.45598657226562456 1.5184149845648107 L 0.45598657226562456 1.4004149845648106 M 0.8399916992187497 1.5754149845648107 L 0.7599916992187497 1.4629149845648106 Q 0.7464916992187497 1.4644149845648107 0.7319916992187496 1.4644149845648107 L 0.6379916992187497 1.4644149845648107 L 0.6379916992187497 1.5754149845648107 L 0.6009916992187497 1.5754149845648107 L 0.6009916992187497 1.2254149845648106 L 0.7319916992187496 1.2254149845648106 Q 0.7989916992187497 1.2254149845648106 0.8369916992187496 1.2574149845648106 Q 0.8749916992187496 1.2894149845648106 0.8749916992187496 1.3454149845648107 Q 0.8749916992187496 1.3864149845648106 0.8542416992187497 1.4146649845648107 Q 0.8334916992187497 1.4429149845648106 0.7949916992187497 1.4554149845648108 L 0.8804916992187497 1.5754149845648107 L 0.8399916992187497 1.5754149845648107 M 0.8104916992187496 1.4099149845648107 Q 0.8379916992187497 1.3869149845648105 0.8379916992187497 1.3454149845648107 Q 0.8379916992187497 1.3029149845648107 0.8104916992187496 1.2801649845648106 Q 0.7829916992187497 1.2574149845648106 0.7309916992187497 1.2574149845648106 L 0.6379916992187497 1.2574149845648106 L 0.6379916992187497 1.4329149845648106 L 0.7309916992187497 1.4329149845648106 Q 0.7829916992187497 1.4329149845648106 0.8104916992187496 1.4099149845648107 M 1.0262529296874996 1.5551649845648106 Q 0.9840029296874997 1.5319149845648106 0.9602529296874996 1.4914149845648106 Q 0.9365029296874997 1.4509149845648106 0.9365029296874997 1.4004149845648106 Q 0.9365029296874997 1.3499149845648106 0.9602529296874996 1.3094149845648106 Q 0.9840029296874997 1.2689149845648107 1.0262529296874996 1.2456649845648107 Q 1.0685029296874997 1.2224149845648107 1.1205029296874998 1.2224149845648107 Q 1.1725029296874996 1.2224149845648107 1.2142529296874998 1.2454149845648106 Q 1.2560029296874997 1.2684149845648107 1.2800029296874997 1.3091649845648106 Q 1.3040029296874998 1.3499149845648106 1.3040029296874998 1.4004149845648106 Q 1.3040029296874998 1.4509149845648106 1.2800029296874997 1.4916649845648107 Q 1.2560029296874997 1.5324149845648107 1.2142529296874998 1.5554149845648106 Q 1.1725029296874996 1.5784149845648106 1.1205029296874998 1.5784149845648106 Q 1.0685029296874997 1.5784149845648106 1.0262529296874996 1.5551649845648106 M 1.1955029296874997 1.5266649845648106 Q 1.2290029296874998 1.5079149845648105 1.2480029296874997 1.4746649845648108 Q 1.2670029296874996 1.4414149845648105 1.2670029296874996 1.4004149845648106 Q 1.2670029296874996 1.3594149845648107 1.2480029296874997 1.3261649845648107 Q 1.2290029296874998 1.2929149845648107 1.1955029296874997 1.2741649845648106 Q 1.1620029296874996 1.2554149845648106 1.1205029296874998 1.2554149845648106 Q 1.0790029296874997 1.2554149845648106 1.0452529296874997 1.2741649845648106 Q 1.0115029296874998 1.2929149845648107 0.9922529296874997 1.3261649845648107 Q 0.9730029296874997 1.3594149845648107 0.9730029296874997 1.4004149845648106 Q 0.9730029296874997 1.4414149845648105 0.9922529296874997 1.4746649845648108 Q 1.0115029296874998 1.5079149845648105 1.0452529296874997 1.5266649845648106 Q 1.0790029296874997 1.5454149845648106 1.1205029296874998 1.5454149845648106 Q 1.1620029296874996 1.5454149845648106 1.1955029296874997 1.5266649845648106 M 1.8619995117187496 1.2254149845648106 L 1.7439995117187497 1.5754149845648107 L 1.7049995117187497 1.5754149845648107 L 1.6024995117187497 1.2769149845648107 L 1.4994995117187497 1.5754149845648107 L 1.4609995117187498 1.5754149845648107 L 1.3429995117187497 1.2254149845648106 L 1.3809995117187497 1.2254149845648106 L 1.4819995117187497 1.5264149845648107 L 1.5864995117187497 1.2254149845648106 L 1.6209995117187497 1.2254149845648106 L 1.7239995117187497 1.5279149845648106 L 1.8264995117187497 1.2254149845648106 L 1.8619995117187496 1.2254149845648106 M 2.44152294921875 1.2254149845648106 L 2.44152294921875 1.5754149845648107 L 2.40602294921875 1.5754149845648107 L 2.40602294921875 1.2954149845648106 L 2.2685229492187498 1.5309149845648107 L 2.2510229492187497 1.5309149845648107 L 2.1135229492187495 1.2969149845648107 L 2.1135229492187495 1.5754149845648107 L 2.0780229492187496 1.5754149845648107 L 2.0780229492187496 1.2254149845648106 L 2.1085229492187496 1.2254149845648106 L 2.2605229492187497 1.4849149845648106 L 2.41102294921875 1.2254149845648106 L 2.44152294921875 1.2254149845648106 M 2.6192814941406244 1.5551649845648106 Q 2.5770314941406247 1.5319149845648106 2.5532814941406246 1.4914149845648106 Q 2.5295314941406244 1.4509149845648106 2.5295314941406244 1.4004149845648106 Q 2.5295314941406244 1.3499149845648106 2.5532814941406246 1.3094149845648106 Q 2.5770314941406247 1.2689149845648107 2.6192814941406244 1.2456649845648107 Q 2.6615314941406245 1.2224149845648107 2.7135314941406246 1.2224149845648107 Q 2.7655314941406246 1.2224149845648107 2.8072814941406246 1.2454149845648106 Q 2.8490314941406245 1.2684149845648107 2.8730314941406245 1.3091649845648106 Q 2.8970314941406246 1.3499149845648106 2.8970314941406246 1.4004149845648106 Q 2.8970314941406246 1.4509149845648106 2.8730314941406245 1.4916649845648107 Q 2.8490314941406245 1.5324149845648107 2.8072814941406246 1.5554149845648106 Q 2.7655314941406246 1.5784149845648106 2.7135314941406246 1.5784149845648106 Q 2.6615314941406245 1.5784149845648106 2.6192814941406244 1.5551649845648106 M 2.7885314941406247 1.5266649845648106 Q 2.8220314941406244 1.5079149845648105 2.8410314941406245 1.4746649845648108 Q 2.8600314941406246 1.4414149845648105 2.8600314941406246 1.4004149845648106 Q 2.8600314941406246 1.3594149845648107 2.8410314941406245 1.3261649845648107 Q 2.8220314941406244 1.2929149845648107 2.7885314941406247 1.2741649845648106 Q 2.7550314941406246 1.2554149845648106 2.7135314941406246 1.2554149845648106 Q 2.6720314941406245 1.2554149845648106 2.6382814941406245 1.2741649845648106 Q 2.6045314941406246 1.2929149845648107 2.5852814941406246 1.3261649845648107 Q 2.5660314941406246 1.3594149845648107 2.5660314941406246 1.4004149845648106 Q 2.5660314941406246 1.4414149845648105 2.5852814941406246 1.4746649845648108 Q 2.6045314941406246 1.5079149845648105 2.6382814941406245 1.5266649845648106 Q 2.6720314941406245 1.5454149845648106 2.7135314941406246 1.5454149845648106 Q 2.7550314941406246 1.5454149845648106 2.7885314941406247 1.5266649845648106 M 3.2240261230468743 1.5754149845648107 L 3.1440261230468747 1.4629149845648106 Q 3.1305261230468746 1.4644149845648107 3.1160261230468747 1.4644149845648107 L 3.0220261230468743 1.4644149845648107 L 3.0220261230468743 1.5754149845648107 L 2.9850261230468744 1.5754149845648107 L 2.9850261230468744 1.2254149845648106 L 3.1160261230468747 1.2254149845648106 Q 3.1830261230468744 1.2254149845648106 3.2210261230468746 1.2574149845648106 Q 3.2590261230468744 1.2894149845648106 3.2590261230468744 1.3454149845648107 Q 3.2590261230468744 1.3864149845648106 3.2382761230468744 1.4146649845648107 Q 3.2175261230468744 1.4429149845648106 3.1790261230468744 1.4554149845648108 L 3.2645261230468745 1.5754149845648107 L 3.2240261230468743 1.5754149845648107 M 3.1945261230468747 1.4099149845648107 Q 3.2220261230468745 1.3869149845648105 3.2220261230468745 1.3454149845648107 Q 3.2220261230468745 1.3029149845648107 3.1945261230468747 1.2801649845648106 Q 3.1670261230468744 1.2574149845648106 3.1150261230468743 1.2574149845648106 L 3.0220261230468743 1.2574149845648106 L 3.0220261230468743 1.4329149845648106 L 3.1150261230468743 1.4329149845648106 Q 3.1670261230468744 1.4329149845648106 3.1945261230468747 1.4099149845648107 M 3.5990373535156244 1.5434149845648106 L 3.5990373535156244 1.5754149845648107 L 3.3515373535156243 1.5754149845648107 L 3.3515373535156243 1.2254149845648106 L 3.5915373535156245 1.2254149845648106 L 3.5915373535156245 1.2574149845648106 L 3.3885373535156242 1.2574149845648106 L 3.3885373535156242 1.3819149845648107 L 3.5695373535156243 1.3819149845648107 L 3.5695373535156243 1.4134149845648107 L 3.3885373535156242 1.4134149845648107 L 3.3885373535156242 1.5434149845648106 L 3.5990373535156244 1.5434149845648106" fill="#314f4f" fill-rule="nonzero"></path></g><g clip-path="url(#SvgjsClipPath1002)"><g clip-path="url(#befe9e9f1-73a8-43b9-8530-3ba0836e4b27c2a842bf-00b7-4a84-813a-186088f59c73)"><path d=" M 0.29372996420056374 -3.234737090000243 L 0.8742679781764124 -3.8318290799075787 L 0.8742679781764124 -4.218314808200756 L -0.09202467367292666 -3.224501824124623 L -0.18085215966491353 -3.224501824124623 L 0.38161747679581026 -3.8927184677186646 L -0.28607695935559785 -3.224501824124623 L -0.326652477648234 -3.224501824124623 L 0.2389504034682921 -3.896582802794154 L -0.4327650299913952 -3.224501824124623 L -0.4737060934938748 -3.224501824124623 L 0.08980795785211626 -3.8939717655809853 L -0.5792442176501391 -3.224501824124623 L -0.6671839509896487 -3.224501824124623 L 0.09205344985544084 -4.005358613094747 L 0.09205344985544084 -4.218314808200756 L 0.08735358287173778 -4.213458278984263 L 0.08850243924553203 -4.212361643354733 L -0.8729859041315771 -3.2235618507278825 L -0.8729859041315771 -0.19355760633454988 L -0.8742914227381613 -0.19355760633454988 L -0.8742914227381613 -0.1875 L -0.09202467367292666 -0.1875 L 0.29372996420056374 -0.5842209941687972 Z" fill="#2d6864" transform="matrix(1,0,0,1,0,0)" fill-rule="nonzero"></path></g><g clip-path="url(#befe9e9f1-73a8-43b9-8530-3ba0836e4b27c2a842bf-00b7-4a84-813a-186088f59c73)"><path d=" M -0.3293157356056653 -4.218314808200756 L -1.2956083874550046 -3.2245018241246233 L -1.3859502750306292 -3.2245018241246233 L -0.8234806385699054 -3.892770688462928 L -1.491175074721313 -3.2245018241246233 L -1.5317505930139492 -3.2245018241246233 L -0.9661477118974233 -3.896582802794154 L -1.6378631453571104 -3.2245018241246233 L -1.6787519881153268 -3.2245018241246233 L -1.1152379367693355 -3.893971765580986 L -1.7843423330158543 -3.2245018241246233 L -1.8708198855159897 -3.2245018241246233 L -1.1115302639266365 -4.005358613094747 L -1.1115302639266365 -4.218314808200756 L -2.077875136520239 -3.2245018241246233 L -2.077875136520239 -0.1875000000000009 L -1.2956083874550042 -0.1875000000000009 L -0.907503816089662 -0.5866753691491771 L -0.907503816089662 -3.2375570101904656 L -0.3293157356056653 -3.832246845861686 Z" fill="#2d6864" transform="matrix(1,0,0,1,0,0)" fill-rule="nonzero"></path></g><g clip-path="url(#befe9e9f1-73a8-43b9-8530-3ba0836e4b27c2a842bf-00b7-4a84-813a-186088f59c73)"><path d=" M 1.1115068193648878 -3.224501824124623 L 1.017143934480984 -3.224501824124623 L 1.5796135709417078 -3.892770688462928 L 0.9119191347903 -3.224501824124623 L 0.871343616497664 -3.224501824124623 L 1.4369464976141897 -3.8965828027941534 L 0.7652310641545026 -3.224501824124623 L 0.7243422213962862 -3.224501824124623 L 1.2878562727422773 -3.8939717655809853 L 0.6187518764957587 -3.224501824124623 L 0.536347542048166 -3.224501824124623 L 1.2955849428932553 -4.00541083383901 L 1.2955849428932553 -4.218314808200756 L 1.2883262594406477 -4.210847241771095 L 1.2896317780472315 -4.209541723164511 L 0.3281956554143859 -3.2207419305376606 L 0.3281956554143859 -0.6197833210121497 L 0.32929229104391666 -0.6208277358974179 L 0.32929229104391666 -0.1875 L 1.1115068193648878 -0.1875 L 2.0778516919584904 -1.1813129840761332 L 2.0778516919584904 -4.218314808200756 Z" fill="#2d6864" transform="matrix(1,0,0,1,0,0)" fill-rule="nonzero"></path></g><g clip-path="url(#befe9e9f1-73a8-43b9-8530-3ba0836e4b27c2a842bf-00b7-4a84-813a-186088f59c73)"><path d=" M -1.3546178284726091 -2.6178012172728273 L -1.9887865468069355 -2.6178012172728273 L -1.9887865468069355 -2.8076236226701656 L -1.3546178284726091 -2.8076236226701656 Z M -1.3546178284726091 -0.41763681996865776 L -1.9887865468069355 -0.41763681996865776 L -1.9887865468069355 -0.6074592253659956 L -1.3546178284726091 -0.6074592253659956 Z M -0.148161973756046 -2.6178012172728273 L -0.7823306920903723 -2.6178012172728273 L -0.7823306920903723 -2.8076236226701656 L -0.148161973756046 -2.8076236226701656 Z M -0.148161973756046 -0.41763681996865776 L -0.7823306920903723 -0.41763681996865776 L -0.7823306920903723 -0.6074592253659956 L -0.148161973756046 -0.6074592253659956 Z M 1.0712968462820953 -2.6178012172728273 L 0.4371281279477688 -2.6178012172728273 L 0.4371281279477688 -2.8076236226701656 L 1.0712968462820953 -2.8076236226701656 Z M 1.0712968462820953 -0.41763681996865776 L 0.4371281279477688 -0.41763681996865776 L 0.4371281279477688 -0.6074592253659956 L 1.0712968462820953 -0.6074592253659956 Z" fill="#ffffff" transform="matrix(1,0,0,1,0,0)" fill-rule="nonzero"></path></g></g></g><defs><clipPath id="SvgjsClipPath1002"><path d=" M -2.0778751365202393 -4.218311830044266 h 4.1557502730404785 v 4.030811830044266 h -4.1557502730404785 Z"></path></clipPath><clipPath id="befe9e9f1-73a8-43b9-8530-3ba0836e4b27c2a842bf-00b7-4a84-813a-186088f59c73"><path d=" M -2.130095880783606 -4.270535552464124 L 2.130072436221857 -4.270535552464124 L 2.130072436221857 -0.13527925573663246 L -2.130095880783606 -0.13527925573663246 Z"></path></clipPath></defs></svg>